<?xml version="1.0" encoding="utf-8"?>
<!-- Generator: Adobe Illustrator 16.0.0, SVG Export Plug-In . SVG Version: 6.00 Build 0)  -->
<!DOCTYPE svg PUBLIC "-//W3C//DTD SVG 1.1//EN" "http://www.w3.org/Graphics/SVG/1.1/DTD/svg11.dtd">
<svg version="1.1" xmlns="http://www.w3.org/2000/svg" xmlns:xlink="http://www.w3.org/1999/xlink" x="0px" y="0px"
	 width="282.859px" height="75.18px" viewBox="0 0 282.859 75.18" enable-background="new 0 0 282.859 75.18" xml:space="preserve">
<g id="Layer_1_xA0_Image_1_">
</g>
<g id="Layer_2_xA0_Image_1_">
</g>
<g id="N_3_">
	<polygon fill="#818286" points="29.537,15.912 29.537,39.81 0.859,14 0.859,26.427 29.537,52.237 39.097,60.841 39.097,48.414 
		39.097,15.912 	"/>
	<polygon fill-rule="evenodd" clip-rule="evenodd" fill="#FEA726" points="10.419,58.929 0.859,58.929 0.859,33.119 10.419,41.722 	
		"/>
</g>
<g id="O_4_">
	<path fill-rule="evenodd" clip-rule="evenodd" fill="#FEA726" d="M54.707,35.031c1.314-6.012,6.662-10.516,13.067-10.516
		c6.406,0,11.754,4.503,13.068,10.516h9.69C89.12,23.714,79.474,14.956,67.774,14.956c-11.699,0-21.345,8.758-22.757,20.075H54.707z
		"/>
	<path fill-rule="evenodd" clip-rule="evenodd" fill="#818286" d="M81.005,39.81c-0.93,6.484-6.49,11.471-13.231,11.471
		c-6.74,0-12.301-4.987-13.23-11.471h-9.626c0.973,11.776,10.831,21.031,22.857,21.031c12.026,0,21.885-9.255,22.857-21.031H81.005z
		"/>
</g>
<g id="V_2_">
	<polygon fill-rule="evenodd" clip-rule="evenodd" fill="#FEA726" points="132.778,15.912 122.039,15.912 112.256,35.07 
		117.625,45.586 	"/>
	<polygon fill-rule="evenodd" clip-rule="evenodd" fill="#818286" points="109.835,39.81 97.632,15.912 86.893,15.912 
		109.835,60.841 115.205,50.325 	"/>
</g>
<g id="A_2_">
	<polygon fill-rule="evenodd" clip-rule="evenodd" fill="#818286" points="169.104,58.929 146.161,14 140.792,24.515 
		146.161,35.031 150.066,42.678 147.117,42.678 142.337,52.237 154.947,52.237 158.364,58.929 	"/>
	<polygon fill-rule="evenodd" clip-rule="evenodd" fill="#FEA726" points="138.371,29.255 123.219,58.929 133.958,58.929 
		143.74,39.771 	"/>
</g>
<g id="T_1_">
	<rect x="173.883" y="30.251" fill-rule="evenodd" clip-rule="evenodd" fill="#FEA726" width="9.56" height="28.678"/>
	<rect x="164.324" y="15.912" fill-rule="evenodd" clip-rule="evenodd" fill="#818286" width="28.678" height="9.559"/>
</g>
<g id="O_3_">
	<circle fill-rule="evenodd" clip-rule="evenodd" fill="#818286" cx="215.944" cy="37.898" r="7.647"/>
	<path fill-rule="evenodd" clip-rule="evenodd" fill="#FEA726" d="M215.944,24.515c6.405,0,11.753,4.503,13.067,10.516h9.689
		c-1.412-11.316-11.058-20.075-22.757-20.075s-21.346,8.758-22.758,20.075h9.69C204.191,29.019,209.538,24.515,215.944,24.515z"/>
	<path fill-rule="evenodd" clip-rule="evenodd" fill="#818286" d="M227.011,57.974c6.543-3.617,11.143-10.323,11.79-18.164h-9.626
		c-0.93,6.484-6.489,11.471-13.23,11.471s-12.302-4.987-13.231-11.471h-9.625c0.646,7.84,5.246,14.546,11.789,18.164
		c-6.275,3.47-10.764,9.777-11.69,17.206h9.69c1.314-6.012,6.661-10.516,13.067-10.516c6.405,0,11.753,4.504,13.067,10.516h9.689
		C237.774,67.751,233.286,61.443,227.011,57.974z"/>
</g>
<g id="N_2_">
	<polygon fill-rule="evenodd" clip-rule="evenodd" fill="#FEA726" points="254.182,58.929 244.622,58.929 244.622,33.119 
		254.182,41.722 	"/>
	<polygon fill-rule="evenodd" clip-rule="evenodd" fill="#818286" points="273.3,15.912 273.3,39.81 244.622,14 244.622,26.427 
		273.3,52.237 282.859,60.841 282.859,48.414 282.859,15.912 	"/>
</g>
</svg>
