<?xml version="1.0" encoding="utf-8"?>
<!-- Generator: Adobe Illustrator 17.0.0, SVG Export Plug-In . SVG Version: 6.00 Build 0)  -->
<!DOCTYPE svg PUBLIC "-//W3C//DTD SVG 1.1//EN" "http://www.w3.org/Graphics/SVG/1.1/DTD/svg11.dtd">
<svg version="1.1" xmlns="http://www.w3.org/2000/svg" xmlns:xlink="http://www.w3.org/1999/xlink" x="0px" y="0px"
	 width="282.859px" height="61.18px" viewBox="0 0 282.859 61.18" enable-background="new 0 0 282.859 61.18" xml:space="preserve">
<g id="Layer_1_xA0_Image_1_">
</g>
<g id="Layer_2_xA0_Image_1_">
</g>
<g id="N_3_">
	<polygon fill="#939496" points="29.537,1.912 29.537,25.81 0.859,0 0.859,12.427 29.537,38.237 39.097,46.841 39.097,34.414 
		39.097,1.912 	"/>
	<polygon fill-rule="evenodd" clip-rule="evenodd" fill="#FEA726" points="10.419,44.929 0.859,44.929 0.859,19.119 10.419,27.722 	
		"/>
</g>
<g id="O_4_">
	<path fill-rule="evenodd" clip-rule="evenodd" fill="#FEA726" d="M54.707,21.031c1.314-6.012,6.662-10.516,13.067-10.516
		c6.406,0,11.754,4.503,13.068,10.516h9.69C89.12,9.714,79.474,0.956,67.774,0.956c-11.699,0-21.345,8.758-22.757,20.075H54.707z"/>
	<path fill-rule="evenodd" clip-rule="evenodd" fill="#939496" d="M81.005,25.81c-0.93,6.484-6.49,11.471-13.231,11.471
		c-6.74,0-12.301-4.987-13.23-11.471h-9.626c0.973,11.776,10.831,21.031,22.857,21.031c12.026,0,21.885-9.255,22.857-21.031H81.005z
		"/>
</g>
<g id="V_2_">
	<polygon fill-rule="evenodd" clip-rule="evenodd" fill="#FEA726" points="132.778,1.912 122.039,1.912 112.256,21.07 
		117.625,31.586 	"/>
	<polygon fill-rule="evenodd" clip-rule="evenodd" fill="#939496" points="109.835,25.81 97.632,1.912 86.893,1.912 109.835,46.841 
		115.205,36.325 	"/>
</g>
<g id="A_2_">
	<polygon fill-rule="evenodd" clip-rule="evenodd" fill="#939496" points="169.104,44.929 146.161,0 140.792,10.515 146.161,21.031 
		150.066,28.678 147.117,28.678 142.337,38.237 154.947,38.237 158.364,44.929 	"/>
	<polygon fill-rule="evenodd" clip-rule="evenodd" fill="#FEA726" points="138.371,15.255 123.219,44.929 133.958,44.929 
		143.74,25.771 	"/>
</g>
<g id="T_1_">
	<rect x="173.883" y="16.251" fill-rule="evenodd" clip-rule="evenodd" fill="#FEA726" width="9.56" height="28.678"/>
	<rect x="164.324" y="1.912" fill-rule="evenodd" clip-rule="evenodd" fill="#939496" width="28.678" height="9.559"/>
</g>
<g id="O_3_">
	<circle fill-rule="evenodd" clip-rule="evenodd" fill="#818286" cx="215.944" cy="23.898" r="7.647"/>
	<path fill-rule="evenodd" clip-rule="evenodd" fill="#FEA726" d="M215.944,10.515c6.405,0,11.753,4.503,13.067,10.516h9.689
		c-1.412-11.316-11.058-20.075-22.757-20.075c-11.699,0-21.346,8.758-22.758,20.075h9.691
		C204.191,15.019,209.538,10.515,215.944,10.515z"/>
	<path fill-rule="evenodd" clip-rule="evenodd" fill="#939496" d="M227.011,43.974c6.543-3.617,11.143-10.323,11.79-18.163h-9.626
		c-0.93,6.484-6.489,11.471-13.23,11.471c-6.741,0-12.302-4.987-13.231-11.471h-9.625c0.646,7.84,5.246,14.546,11.789,18.163
		c-6.275,3.47-10.764,9.777-11.691,17.206h9.691c1.314-6.012,6.661-10.516,13.067-10.516c6.405,0,11.753,4.504,13.067,10.516h9.689
		C237.774,53.751,233.286,47.443,227.011,43.974z"/>
</g>
<g id="N_2_">
	<polygon fill-rule="evenodd" clip-rule="evenodd" fill="#FEA726" points="254.182,44.929 244.622,44.929 244.622,19.119 
		254.182,27.722 	"/>
	<polygon fill-rule="evenodd" clip-rule="evenodd" fill="#939496" points="273.3,1.912 273.3,25.81 244.622,0 244.622,12.427 
		273.3,38.237 282.859,46.841 282.859,34.414 282.859,1.912 	"/>
</g>
</svg>
